<?xml version="1.0" encoding="UTF-8" standalone="no"?>
<!-- Created with Inkscape (http://www.inkscape.org/) -->

<svg
   version="1.1"
   id="svg1"
   width="552.4353"
   height="826.04468"
   viewBox="0 0 552.4353 826.04468"
   sodipodi:docname="ChatGPT Image 2026年4月1日 17_15_46.png"
   xmlns:inkscape="http://www.inkscape.org/namespaces/inkscape"
   xmlns:sodipodi="http://sodipodi.sourceforge.net/DTD/sodipodi-0.dtd"
   xmlns:xlink="http://www.w3.org/1999/xlink"
   xmlns="http://www.w3.org/2000/svg"
   xmlns:svg="http://www.w3.org/2000/svg">
  <defs
     id="defs1" />
  <sodipodi:namedview
     id="namedview1"
     pagecolor="#ffffff"
     bordercolor="#000000"
     borderopacity="0.25"
     inkscape:showpageshadow="2"
     inkscape:pageopacity="0.0"
     inkscape:pagecheckerboard="0"
     inkscape:deskcolor="#d1d1d1" />
  <g
     inkscape:groupmode="layer"
     inkscape:label="Image"
     id="g1"
     transform="translate(-551.5647,-111.46644)">
    
    <path
       style="display:inline;fill:#c9a050"
       d="m 716,937.37563 c -70.88148,-1.48761 -129.12875,-5.94161 -130.68341,-9.993 -0.61097,-1.59215 2.78144,-38.97631 6.70444,-73.88263 5.17002,-46.00211 14.01787,-102.80551 21.50246,-138.04623 2.9472,-13.87668 3.48507,-18.13351 2.96349,-23.45377 -0.91911,-9.37514 -3.23883,-20.17323 -6.57311,-30.59723 -2.83241,-8.85498 -3.02313,-9.14515 -7.16189,-10.89664 -24.43802,-10.34202 -40.9393,-18.8473 -45.59106,-23.49906 -4.56105,-4.56105 -5.67117,-10.81536 -5.59239,-31.50707 0.0448,-11.75347 0.8036,-24.07301 2.18671,-35.5 1.16501,-9.625 2.62333,-24.475 3.24072,-33 1.26045,-17.40443 3.56197,-30.57982 8.58394,-49.14 4.01705,-14.84622 4.07256,-15.90145 1.31411,-24.98303 -2.4409,-8.03613 -2.15811,-10.70588 2.08334,-19.66899 l 2.97747,-6.29202 -1.64236,-7.20798 c -2.09513,-9.19512 -2.3249,-29.32209 -0.41334,-36.20798 3.97842,-14.33127 13.09925,-25.30424 30.92885,-37.20948 37.69605,-25.17054 51.09936,-37.18533 61.22415,-54.88162 2.40288,-4.19979 3.83576,-5.63648 6.06653,-6.08263 1.76875,-0.35375 3.58946,-1.71643 4.61658,-3.45519 1.45573,-2.46435 2.31474,-2.87108 6.06376,-2.87108 12.11203,0 53.88195,15.13824 77.18898,27.97481 5.78162,3.18427 14.56203,7.79359 19.51203,10.24293 10.49251,5.19184 12.34813,5.13647 21.96657,-0.65545 8.09259,-4.8731 9.15226,-4.71001 10.96559,1.68771 3.10001,10.93731 3.66899,14.43675 3.3728,20.7438 -0.28854,6.14423 -0.4486,6.52106 -2.97327,7 l -2.66831,0.5062 2.50819,3 c 11.09752,13.27351 25.58864,34.52105 34.8902,51.15759 3.64163,6.51332 6.76743,11.99235 6.94623,12.17562 0.17879,0.18326 7.45014,-0.58495 16.15854,-1.70714 44.82241,-5.77592 155.38426,-5.83989 206.83346,-0.11965 17.8751,1.98739 30.5,5.07611 30.5,7.46191 0,1.8404 -8.7916,5.04598 -17.5,6.38083 -3.85,0.59013 -14.0599,1.62246 -22.6886,2.29406 l -15.6885,1.22109 0.4657,2.56784 c 0.6956,3.83553 -0.503,4.8789 -9.1727,7.9851 -11.1357,3.98972 -15.8858,6.86057 -44.88134,27.12545 C 983.48017,473.76857 960,494.98074 960,497.24148 c 0,0.53492 1.39671,3.89914 3.10381,7.47603 2.81261,5.89329 2.95738,6.64987 1.54309,8.06416 -1.34073,1.34073 -2.16586,1.38388 -5.85381,0.3061 -6.007,-1.7555 -16.34874,-7.52023 -22.42921,-12.50257 -11.41532,-9.35373 -22.59479,-25.35183 -20.5134,-29.35519 3.04597,-5.85861 4.20693,-29.7635 1.73305,-35.68435 -2.30666,-5.5206 -4.41114,-6.20481 -23.08353,-7.50484 -9.35,-0.65098 -21.8483,-1.72915 -27.774,-2.39594 -7.24142,-0.81484 -10.62225,-0.8734 -10.31118,-0.17861 10.51338,23.48252 17.49872,40.82905 25.11142,62.35863 0.50677,1.43321 6.00761,-1.34618 18.64759,-9.42202 l 6.67384,-4.26399 0.6857,4.05865 c 1.51867,8.98889 8.87746,23.57862 18.61554,36.90764 4.90728,6.71686 20.02484,21.89482 21.80768,21.89482 0.53818,0 3.13062,-2.66884 5.76096,-5.93075 2.63035,-3.26192 5.00745,-5.95756 5.28245,-5.99032 0.66006,-0.0786 6.59398,15.57964 7.35989,19.42107 0.55803,2.79885 0.0221,3.46935 -7.99239,10 -4.72479,3.85 -18.32785,14.35276 -30.22902,23.33946 -11.90116,8.98671 -21.72191,16.42014 -21.82389,16.51875 -0.10197,0.0986 0.20405,3.32084 0.68006,7.16053 1.43735,11.59432 4.89313,53.81206 5.97396,72.98126 5.72148,101.47384 7.82099,175.72407 4.91807,173.92997 -3.50066,-2.16353 -11.15445,-32.78168 -15.35599,-61.42997 -4.29342,-29.27478 -4.24944,-29.11484 -4.3997,-16 -0.14772,12.89343 -2.41639,52.73383 -4.64095,81.5 -1.89149,24.45934 -7.2396,77.68378 -8.00669,79.6828 -0.42802,1.11539 -2.70735,1.71392 -8.28688,2.17607 C 857.06989,936.02592 748.50198,938.05775 716,937.37563 Z M 702,848.5 V 844 l -11.75,0.0843 -11.75,0.0843 4.5,2.09826 c 5.8973,2.74979 16.16645,6.61511 17.75,6.68112 0.82253,0.0343 1.25,-1.48678 1.25,-4.4479 z m 4.5,-14.07631 c 42.10252,-2.89026 50.01998,-3.75221 49.82704,-5.42456 -0.0951,-0.82452 -0.47898,-5.94467 -0.853,-11.3781 l -0.68003,-9.87897 -16.67424,0.61898 c -15.41376,0.57219 -45.47809,-0.44178 -57.86977,-1.95175 L 675,805.76955 v 15.6765 15.6765 l 4.25,-0.55998 c 2.3375,-0.30798 14.6,-1.27048 27.25,-2.13888 z M 723,798.51127 c 10.725,-0.29432 27.825,-1.1955 38,-2.00264 10.175,-0.80714 19.00018,-1.47677 19.6115,-1.48808 0.79893,-0.0148 0.74054,-2.34066 -0.20761,-8.27055 -2.63211,-16.4618 -16.74048,-128.46792 -21.44479,-170.25 -0.55733,-4.95 -1.91962,-15.075 -3.02732,-22.5 -1.10769,-7.425 -2.52188,-17.03195 -3.14264,-21.34878 -0.92221,-6.41319 -1.50914,-8.00355 -3.2089,-8.6949 -2.9067,-1.18227 -18.4739,-2.75393 -35.33024,-3.56693 l -14.25,-0.6873 -0.004,29.39896 c -0.002,16.16942 -0.45178,35.47395 -0.99899,42.89895 -1.06581,14.46189 -5.19777,80.24766 -7.00323,111.5 -1.64634,28.49773 -2.72301,54.9046 -2.27313,55.75142 0.21956,0.41327 3.40975,0.53621 7.08931,0.27319 3.67956,-0.26303 15.46511,-0.71903 26.19011,-1.01334 z M 675.00293,785.25 c 0.002,-7.5625 -0.72206,-41.2 -1.60816,-74.75 -1.52684,-57.80988 -1.43249,-113.43651 0.23535,-138.75 l 0.6424,-9.75 -3.38626,0.0153 c -6.53733,0.0296 -6.12731,-1.61045 -8.87162,35.48469 -1.0986,14.85 -2.45059,33.075 -3.00442,40.5 -0.9482,12.71223 -2.2504,37.64724 -3.44676,66 -0.2901,6.875 -0.76661,24.425 -1.05891,39 -0.2923,14.575 -0.77382,32.43885 -1.07004,39.69744 l -0.53859,13.19745 3.80204,0.99196 c 4.72294,1.23222 8.57314,1.77016 14.05204,1.96332 L 675,799 Z m 205.4481,-124.11642 c -0.0369,-4.04868 -0.5079,-5.702 -1.91796,-6.73305 -2.6953,-1.97086 -4.53307,-0.0299 -4.53307,4.78766 0,5.25557 1.56286,8.01468 4.31766,7.62249 1.94076,-0.27629 2.17692,-0.90474 2.13337,-5.6771 z M 684.96251,634 c 3.13181,-15.45238 6.68516,-44.02356 7.71613,-62.04268 L 693.30558,561 h -6.51289 -6.51288 l -0.6275,5.75 c -1.0615,9.72696 -2.00012,76.32494 -1.18036,83.75 l 0.77284,7 1.38947,-4.5 c 0.76421,-2.475 2.71192,-11.025 4.32825,-19 z m 117.92297,5.93114 c 8.51888,-1.82697 8.94834,-3.80421 4.6613,-21.46064 -8.57609,-35.32113 -17.95546,-58.53103 -24.29613,-60.12244 -2.71965,-0.68259 -14.73462,0.21498 -16.36487,1.22253 -0.61243,0.3785 -0.1814,1.23448 1.05921,2.10343 6.75924,4.73436 14.66461,34.23132 17.08601,63.75235 0.70756,8.62625 1.43491,12.43098 2.62861,13.75 1.91678,2.11801 7.56398,2.39795 15.22587,0.75477 z m -10.23049,-9.75988 C 789.42566,626.60289 791.88079,621 796.67375,621 c 4.21159,0 7.08997,6.83628 4.12625,9.8 -1.79324,1.79324 -6.26558,1.44801 -8.14501,-0.62874 z m 66.67206,-10.6976 c 2.52052,-0.37797 5.39055,-1.29986 6.37785,-2.04864 1.66482,-1.26261 1.61366,-1.35675 -0.7049,-1.29722 -4.71451,0.12106 -12.33794,2.37232 -12.8054,3.78155 -0.30897,0.93144 0.0441,1.21304 1.0411,0.83044 0.82973,-0.31839 3.57084,-0.88815 6.09135,-1.26613 z M 875,598.64246 c 0,-2.15135 -0.53761,-2.41374 -6.14669,-3 -10.30574,-1.07717 -11.8258,-0.88579 -12.76812,1.60754 -0.4677,1.2375 -0.65164,2.5875 -0.40876,3 0.24288,0.4125 4.69005,0.75 9.88259,0.75 C 874.8106,601 875,600.9527 875,598.64246 Z m 5.5021,-19.73077 c 10e-4,-2.58688 0.72508,-5.4344 1.75,-6.8842 2.12768,-3.00972 2.27134,-8.83516 0.28773,-11.66717 -1.77224,-2.53021 -4.02733,-3.46257 -17.53983,-7.25176 -5.775,-1.61943 -13.425,-3.85032 -17,-4.95753 -8.43199,-2.61146 -14.76147,-3.4193 -18.49304,-2.36028 -2.97677,0.8448 -2.96638,0.85614 1.91015,2.08406 7.50222,1.88908 16.6692,5.9636 20.84603,9.2656 2.52567,1.99667 5.64965,3.28569 9.5,3.91989 8.01313,1.31988 16.33529,3.63813 17.59983,4.90267 0.75405,0.75405 0.6373,2.30377 -0.39939,5.30128 l -1.46493,4.23575 -6.99933,-0.44724 c -14.12832,-0.90277 -13.96242,-0.933 -14.30592,2.60662 l -0.3066,3.15937 7.8066,0.69548 c 4.29363,0.38252 9.3816,1.05066 11.3066,1.48477 5.05119,1.1391 5.49977,0.80587 5.5021,-4.08731 z M 867.99626,542.12756 C 867.99096,538.39937 864.45259,533 862.0147,533 860.29059,533 860,533.65561 860,537.54545 c 0,3.53522 0.56498,5.11044 2.54207,7.08753 2.05702,2.05702 2.82026,2.3112 4,1.3321 0.80186,-0.66548 1.45625,-2.39237 1.45419,-3.83752 z m -9.02862,-33.54245 c 1.08782,-2.86119 -0.30142,-8.7873 -2.48476,-10.59932 -3.78598,-3.14209 -6.26976,6.01806 -2.92618,10.7917 2.03374,2.90357 4.26401,2.82428 5.41094,-0.19238 z M 845.99912,464 c -4.60241,-40.02993 -17.99385,-74.12151 -44.2891,-112.75 L 794.73262,341 h -4.74386 c -3.22209,0 -5.18413,0.53687 -6.11632,1.67359 -0.75484,0.92048 -4.03647,3.64038 -7.29251,6.04422 -4.78449,3.53225 -6.15258,4.12236 -7.13218,3.07641 -2.13087,-2.27522 -4.59857,-11.57606 -5.39776,-20.34435 C 763.24638,322.63317 762,318.91434 762,325.33333 c 0,4.55036 -0.93539,4.59486 -8,0.38062 -5.60911,-3.34599 -15.57862,-8.32229 -29,-14.47539 -12.02614,-5.51345 -39.87416,-15.69773 -40.69087,-14.88103 -0.1563,0.15631 5.2166,3.85231 11.93979,8.21333 61.97948,40.20327 110.55853,94.54568 142.57793,159.49322 8.63763,17.5204 9.19347,17.51543 7.17227,-0.0641 z M 952.59996,445.16389 C 957.61947,441.51369 964,434.42418 964,432.49712 964,431.2594 962.1157,431 953.125,431 c -5.98125,0 -12.25759,-0.27652 -13.94743,-0.61449 l -3.07242,-0.61448 1.99077,5.23929 c 5.30561,13.96322 7.32309,15.37556 14.50404,10.15357 z m 37.17856,-8.08302 c 3.14681,-1.60551 6.62148,-3.6162 7.72148,-4.46819 1.86501,-1.44452 1.55017,-1.55122 -4.66451,-1.58088 l -6.6645,-0.0318 -2.5151,4.5 c -3.0689,5.49085 -2.05436,5.75281 6.12263,1.58087 z M 731,362.1585 c 0,-0.46283 -5.9625,-1.39707 -13.25,-2.07608 -7.2875,-0.67902 -14.32962,-1.49097 -15.64915,-1.80434 -4.38492,-1.04136 -1.25604,1.61207 3.69833,3.13635 C 710.87798,362.97699 731,363.5711 731,362.1585 Z m 140.48182,37.73989 c 2.37656,-21.33789 8.34426,-35.0357 21.41442,-49.15304 14.72075,-15.90016 35.93828,-26.5487 59.45383,-29.83837 l 8.72384,-1.2204 -2.41477,-2.59329 c -7.24221,-7.77762 -5.90193,-17.20791 2.8565,-20.09845 7.01886,-2.31643 14.48436,2.72022 14.48436,9.77198 0,3.74145 -3.08588,9.66842 -5.52024,10.60257 -3.44941,1.32367 -0.92964,2.40021 7.153,3.05603 28.40804,2.30501 54.81844,16.10026 70.39284,36.76904 9.6391,12.79206 15.4085,27.14499 17.5676,43.70407 l 0.7039,5.39854 -4.8986,-0.62091 c -16.4867,-2.08977 -45.314,-3.03434 -91.8985,-3.01121 -46.41464,0.023 -63.38276,0.57942 -91.36541,2.9958 l -7.36541,0.63603 z m 30.81097,-43.82913 c 5.75887,-6.98811 13.91398,-13.52984 23.95477,-19.21562 7.06968,-4.00334 2.0186,-2.5311 -6.74756,1.96671 -10.02791,5.1452 -21.06951,16.35958 -25.77629,26.17965 -4.91735,10.25939 -5.65714,14.18091 -0.9997,5.29927 2.0768,-3.9604 6.38275,-10.3639 9.56878,-14.23001 z M 784,310.10041 c 0,-4.54039 -12.49559,-17.55975 -24.5,-25.52695 -16.51192,-10.95878 -41.36262,-19.023 -62.94666,-20.42662 l -9.94666,-0.64684 0.26887,-5.74369 c 0.49357,-10.54394 -1.338,-15.892 -9.62517,-28.1049 -9.00938,-13.27724 -12.50052,-20.40579 -15.2561,-31.15141 -2.87019,-11.19255 -3.49724,-20.80685 -1.99889,-30.64801 2.51193,-16.49839 7.74665,-26.36956 19.50461,-36.78006 22.73395,-20.12864 64.19375,-25.3487 102.5,-12.90542 13.34033,4.33343 22,10.75678 22,16.3186 0,1.32853 0.68249,2.79745 1.51665,3.26427 2.41593,1.35202 9.55415,11.2779 12.15825,16.90634 1.31196,2.83564 3.02209,8.46064 3.80029,12.5 0.7782,4.03935 2.38447,10.46837 3.56948,14.28671 1.31303,4.23086 1.94298,8.24622 1.61286,10.28054 -0.40589,2.50118 -0.19658,3.26777 0.83481,3.05757 1.30904,-0.26679 1.50766,0.0146 1.50766,2.13613 0,0.50416 -1.9125,0.91261 -4.25,0.90766 -3.78223,-0.008 -4.4151,-0.35655 -5.75,-3.16667 -2.6154,-5.50571 -8.78846,-4.49306 -11.45062,1.87841 L 806.10205,200 l -28.30102,0.16169 c -18.48384,0.10561 -25.6994,0.40715 -20.80103,0.8693 4.125,0.38918 16.8375,0.76642 28.25,0.83831 L 806,202 v 5.9349 c 0,3.2642 0.44096,7.09473 0.97992,8.51229 1.31126,3.44887 5.05106,5.14178 7.94145,3.59489 2.86245,-1.53194 4.1354,-5.02956 4.9286,-13.54208 0.58285,-6.25506 0.86498,-6.96864 2.65114,-6.70532 1.09939,0.16207 2.89889,1.48061 3.99889,2.93008 13.59852,17.91878 18.66125,25.06952 19.1621,27.06507 0.77686,3.09524 -2.40038,7.43084 -6.26425,8.54809 -1.59382,0.46086 -4.02285,1.15697 -5.39785,1.54691 -2.39116,0.67813 -2.48778,1.00562 -2.21927,7.52259 0.16121,3.91274 -0.18765,7.37796 -0.8194,8.13917 -0.77148,0.92958 -0.79007,1.90489 -0.0622,3.26489 0.76372,1.42703 0.61297,3.02105 -0.57068,6.03435 -1.48971,3.79243 -1.48092,4.54997 0.11893,10.25179 2.05883,7.33765 1.43879,12.06018 -1.93154,14.71127 -1.96582,1.54632 -4.69148,1.9941 -14.79407,2.4304 -8.36135,0.3611 -13.36539,1.04219 -15.40457,2.09669 -4.16742,2.15506 -8.63203,7.48157 -10.90711,13.01276 C 785.4156,312.1977 784,313.33998 784,310.10041 Z m 14.09868,-39.93437 c 6.95704,-5.92388 13.03695,-19.47917 12.78532,-28.50513 -0.0638,-2.2885 -0.31789,-3.26091 -0.56463,-2.16091 -3.84187,17.12713 -6.70829,22.80679 -15.78233,31.27179 -7.19891,6.71573 -4.49709,6.25622 3.56164,-0.60575 z M 747.8,243.8 c 1.90147,-1.90147 1.45796,-6.59158 -0.73426,-7.76482 -3.05351,-1.63419 -4.89222,-1.22964 -6.6577,1.46482 -1.51741,2.31587 -1.51741,2.68413 0,5 1.75527,2.67888 5.37626,3.3157 7.39196,1.3 z m -21.31287,-19.82489 c -2.2263,-4.30519 -3.74096,-13.5132 -2.97176,-18.06606 0.36794,-2.17785 1.89111,-5.20318 3.47133,-6.89482 2.45904,-2.6324 3.49961,-3.01423 8.21451,-3.01423 2.96933,0 5.93129,0.5325 6.58212,1.18333 2.2975,2.2975 2.52551,-0.22568 0.24023,-2.65825 -2.9411,-3.13066 -8.30087,-4.91962 -12.3269,-4.11441 -8.19695,1.63939 -12.16028,11.31417 -9.2698,22.62826 0.90786,3.55359 2.7646,8.14857 4.12609,10.21107 2.97577,4.50797 4.11032,4.9333 1.93418,0.72511 z"
       id="path1" />
  </g>
</svg>
